<svg xmlns="http://www.w3.org/2000/svg" width="511" height="512" viewBox="0 0 511 512" version="1.1">
	<path d="M 241.500 0.603 C 205.178 3.411, 173.678 11.699, 143.746 26.326 C 92.727 51.256, 51.750 92.202, 26.483 143.500 C 1.059 195.117, -5.946 253.584, 6.562 309.769 C 7.998 316.221, 9.501 321.844, 9.902 322.265 C 10.617 323.016, 74.585 321.472, 96.847 320.166 L 108.195 319.500 94.800 304.500 C 58.641 264.009, 49.348 250.986, 42.777 231.598 C 38.850 220.014, 37.916 205.272, 40.429 194.565 C 46.654 168.047, 70.999 148.274, 107.204 140.330 C 113.656 138.915, 119.724 138.518, 134.500 138.547 C 150.949 138.578, 154.775 138.897, 163 140.918 C 181.062 145.358, 196.547 153.165, 203.899 161.537 C 208.453 166.724, 208.922 169.810, 205.592 172.675 C 202.360 175.454, 201.524 175.141, 192.500 167.774 C 185.271 161.873, 171.250 154.861, 161 152.021 C 138.530 145.794, 121.981 150.169, 122.010 162.327 C 122.031 171.242, 130.305 183.651, 151.119 205.981 C 210.522 269.714, 220.943 284.383, 224.933 309.882 C 225.482 313.393, 226.059 316.392, 226.216 316.548 C 226.372 316.703, 233.825 316.576, 242.777 316.265 L 259.054 315.699 251.709 308.100 C 243.123 299.216, 239.629 294.300, 234.185 283.440 C 220.646 256.433, 220.060 227.219, 232.516 200.259 C 244.955 173.336, 267.846 154.399, 296.823 147.061 C 317.886 141.727, 352.313 139.763, 417 140.204 L 460.500 140.500 460.539 222.500 C 460.560 267.600, 460.959 305.785, 461.424 307.355 L 462.270 310.210 482.885 309.501 C 494.223 309.111, 503.812 308.501, 504.193 308.146 C 505.281 307.132, 507.800 293.488, 508.928 282.500 C 509.493 277, 510.214 270.250, 510.530 267.500 C 511.923 255.366, 512.127 247.727, 511.083 246.683 C 510.487 246.087, 510 243.084, 510 240.008 C 510 232.657, 507.379 212.800, 504.918 201.500 C 485.907 114.235, 421.400 42.093, 337.247 13.985 C 319.890 8.187, 305.042 4.685, 288.822 2.561 C 276.896 1, 250.497 -0.093, 241.500 0.603 M 322.712 153.126 C 304.819 155.428, 288.323 160.585, 276 167.731 C 267.510 172.654, 254.616 185.563, 248.752 195.012 C 227 230.060, 234.254 277.561, 265.230 302.906 C 268.990 305.983, 274.730 309.946, 277.987 311.714 L 283.907 314.927 317.704 313.986 C 336.292 313.469, 352.512 313.035, 353.750 313.023 L 356 313 356 232.500 L 356 152 342.750 152.126 C 335.462 152.196, 326.445 152.646, 322.712 153.126 M 0.343 255.500 C 0.346 259.900, 0.522 261.576, 0.733 259.224 C 0.945 256.872, 0.942 253.272, 0.727 251.224 C 0.512 249.176, 0.339 251.100, 0.343 255.500" stroke="none" fill="black" fill-rule="evenodd"/>
</svg>