<?xml version="1.0" standalone="no"?>
<svg viewBox="0 0 200 200" xmlns="http://www.w3.org/2000/svg">
  <path fill="#EC4357" d="M19.6,-29.4C29.4,-28.3,44,-31.1,51.7,-26.8C59.4,-22.6,60.3,-11.3,53,-4.2C45.8,2.9,30.4,5.8,26.5,16.6C22.5,27.4,29.9,46.1,27.4,51.8C24.9,57.6,12.5,50.5,0.6,49.4C-11.2,48.4,-22.5,53.4,-30.8,51C-39.1,48.6,-44.5,38.7,-44.1,28.9C-43.7,19.2,-37.5,9.6,-36.1,0.8C-34.7,-8,-38,-15.9,-40.9,-30C-43.9,-44.2,-46.4,-64.5,-39.5,-67.3C-32.6,-70,-16.3,-55.2,-5.7,-45.3C4.9,-35.5,9.8,-30.5,19.6,-29.4Z" transform="translate(100 100)" />
</svg>
